HIERARCHY
ROOT Hips
{
	OFFSET 0.000000 0.000000 0.000000
	CHANNELS 6 Xposition Yposition Zposition Xrotation Yrotation Zrotation
	JOINT LeftUpLeg_virtual
	{
		OFFSET 0.000000 0.000000 0.000000
		CHANNELS 3 Xrotation Yrotation Zrotation
		JOINT LeftUpLeg
		{
			OFFSET 11.394100 -6.187798 -0.413800
			CHANNELS 3 Xrotation Yrotation Zrotation
			JOINT LeftLeg
			{
				OFFSET 0.430247 -32.302673 3.732800
				CHANNELS 3 Xrotation Yrotation Zrotation
				JOINT LeftFoot
				{
					OFFSET -0.430247 -48.264931 -6.423300
					CHANNELS 3 Xrotation Yrotation Zrotation
					JOINT LeftToeBase
					{
						OFFSET 4.230900 -16.068199 23.438400
						CHANNELS 3 Xrotation Yrotation Zrotation
						JOINT LeftToe_End
						{
							OFFSET 4.510700 0.695400 19.974600
							CHANNELS 3 Xrotation Yrotation Zrotation
							End Site
							{
								OFFSET 0 0 0
							}
						}
					}
				}
			}
		}
	}
	JOINT RightUpLeg_virtual
	{
		OFFSET 0.000000 0.000000 0.000000
		CHANNELS 3 Xrotation Yrotation Zrotation
		JOINT RightUpLeg
		{
			OFFSET -11.333700 -6.187798 -0.413800
			CHANNELS 3 Xrotation Yrotation Zrotation
			JOINT RightLeg
			{
				OFFSET -0.430392 -32.302628 3.733000
				CHANNELS 3 Xrotation Yrotation Zrotation
				JOINT RightFoot
				{
					OFFSET 0.430392 -48.264973 -6.423500
					CHANNELS 3 Xrotation Yrotation Zrotation
					JOINT RightToeBase
					{
						OFFSET -4.230900 -16.068199 23.438400
						CHANNELS 3 Xrotation Yrotation Zrotation
						JOINT RightToe_End
						{
							OFFSET -4.510700 0.695400 19.974600
							CHANNELS 3 Xrotation Yrotation Zrotation
							End Site
							{
								OFFSET 0 0 0
							}
						}
					}
				}
			}
		}
	}
	JOINT Spine_virtual
	{
		OFFSET 0.000000 0.000000 0.000000
		CHANNELS 3 Xrotation Yrotation Zrotation
		JOINT Spine
		{
			OFFSET -0.002400 12.777504 0.315300
			CHANNELS 3 Xrotation Yrotation Zrotation
			JOINT Spine1
			{
				OFFSET -0.002067 5.816869 0.032633
				CHANNELS 3 Xrotation Yrotation Zrotation
				JOINT Spine1_split
				{
					OFFSET -0.002067 5.816869 0.032633
					CHANNELS 3 Xrotation Yrotation Zrotation
					JOINT Spine2
					{
						OFFSET -0.002067 5.816869 0.032633
						CHANNELS 3 Xrotation Yrotation Zrotation
						JOINT Neck_virtual
						{
							OFFSET 0.000000 0.000000 0.000000
							CHANNELS 3 Xrotation Yrotation Zrotation
							JOINT Neck
							{
								OFFSET -0.003700 21.199493 -0.826900
								CHANNELS 3 Xrotation Yrotation Zrotation
								JOINT Head
								{
									OFFSET 0.000000 20.442200 4.834800
									CHANNELS 3 Xrotation Yrotation Zrotation
									JOINT HeadTop_End
									{
										OFFSET 0.000000 34.668396 4.968400
										CHANNELS 3 Xrotation Yrotation Zrotation
										End Site
										{
											OFFSET 0 0 0
										}
									}
								}
							}
						}
						JOINT LeftShoulder_virtual
						{
							OFFSET 0.000000 0.000000 0.000000
							CHANNELS 3 Xrotation Yrotation Zrotation
							JOINT LeftShoulder
							{
								OFFSET 3.288150 8.794197 -1.372250
								CHANNELS 3 Xrotation Yrotation Zrotation
								JOINT LeftShoulder_split
								{
									OFFSET 3.288150 8.794197 -1.372250
									CHANNELS 3 Xrotation Yrotation Zrotation
									JOINT LeftArm
									{
										OFFSET 11.953299 -2.279007 -0.146200
										CHANNELS 3 Xrotation Yrotation Zrotation
										JOINT LeftForeArm
										{
											OFFSET 18.448900 0.000000 0.000000
											CHANNELS 3 Xrotation Yrotation Zrotation
											JOINT LeftHand
											{
												OFFSET 29.527798 0.000000 0.000000
												CHANNELS 3 Xrotation Yrotation Zrotation
												End Site
												{
													OFFSET 0 0 0
												}
											}
										}
									}
								}
							}
						}
						JOINT RightShoulder_virtual
						{
							OFFSET 0.000000 0.000000 0.000000
							CHANNELS 3 Xrotation Yrotation Zrotation
							JOINT RightShoulder
							{
								OFFSET -3.249400 8.794197 -1.372250
								CHANNELS 3 Xrotation Yrotation Zrotation
								JOINT RightShoulder_split
								{
									OFFSET -3.249400 8.794197 -1.372250
									CHANNELS 3 Xrotation Yrotation Zrotation
									JOINT RightArm
									{
										OFFSET -11.953299 -2.279007 -0.146200
										CHANNELS 3 Xrotation Yrotation Zrotation
										JOINT RightForeArm
										{
											OFFSET -18.448900 0.000000 0.000000
											CHANNELS 3 Xrotation Yrotation Zrotation
											JOINT RightHand
											{
												OFFSET -29.527802 0.000000 0.000000
												CHANNELS 3 Xrotation Yrotation Zrotation
												End Site
												{
													OFFSET 0 0 0
												}
											}
										}
									}
								}
							}
						}
					}
				}
			}
		}
	}
}
MOTION
Frames: 5
Frame Time: 0.03333333
-21.947382 143.555084 30.723566 0.000000 0.000000 0.000000 6.271685 -17.753327 1.154701 -21.808534 6.693145 5.551950 26.023895 13.810187 6.067376 23.442543 -1.488553 2.557037 3.428707 0.965071 -0.154242 0.000000 0.000000 0.000000 6.240291 -17.261951 0.542913 -11.505890 -5.834494 -3.810646 12.121840 -17.130137 -1.601191 38.266657 -2.811019 -4.376577 12.662909 -5.860571 -0.546932 0.000000 0.000000 0.000000 5.792035 -15.467640 0.491608 0.220566 3.681419 4.024233 -5.097136 1.185528 -1.683924 2.209266 -2.620054 0.386926 0.000000 0.000000 0.000000 -0.769908 1.222947 -2.401366 -28.189786 1.993225 -0.292077 -6.604974 3.213400 4.250339 0.000000 0.000000 0.000000 -3.799877 1.244023 -1.847924 4.389963 -3.313256 22.222948 4.641643 6.471903 0.952468 -56.546709 -25.152769 23.101559 -23.829328 -47.148738 9.708215 0.000000 0.000000 0.000000 -3.541592 0.756758 -1.469352 -4.746395 -11.983114 -26.266688 -1.192253 -1.909748 -2.196334 -84.811832 34.466630 33.560708 -31.402252 43.616782 -4.306534 0.000000 0.000000 0.000000 
-22.613974 140.232361 31.819519 0.000000 0.000000 0.000000 5.133945 -16.384464 0.497098 -24.477038 8.161022 6.847312 28.226085 14.261978 5.062477 29.728170 -2.099504 3.870657 4.824659 1.063547 -0.467311 0.000000 0.000000 0.000000 5.575881 -14.380810 -0.081948 -13.185955 -7.726246 -5.916344 17.025850 -15.148064 -0.372123 43.987388 0.134125 -2.366116 11.583853 -3.588970 -1.525804 0.000000 0.000000 0.000000 4.138590 -13.416033 -0.290334 0.639984 3.863862 4.188717 -5.399716 1.089177 -1.305922 2.580408 -2.891427 0.733873 0.000000 0.000000 0.000000 -1.567195 1.159682 -1.878131 -27.686978 1.218884 -1.115342 -7.229491 1.628227 4.418165 0.000000 0.000000 0.000000 -4.391570 1.100209 -1.428051 5.267913 -2.418397 24.456375 3.759063 4.934822 1.974338 -52.382654 -19.407119 19.126101 -20.349217 -51.259251 11.936610 0.000000 0.000000 0.000000 -4.230576 0.719268 -0.997876 -2.560534 -10.085023 -24.062142 -1.985697 -2.598119 -2.075729 -79.781794 39.094934 31.326738 -30.559305 39.391101 -0.361630 0.000000 0.000000 0.000000 
-23.184792 136.758636 33.030235 0.000000 0.000000 0.000000 4.028079 -15.153640 -0.093871 -27.090738 9.091244 7.974560 30.254149 14.663161 4.247702 35.016064 -2.478282 5.742639 6.032600 1.120201 -0.752959 0.000000 0.000000 0.000000 4.976461 -11.417526 -0.521884 -13.912038 -8.184364 -6.882075 20.258228 -13.355901 0.167696 48.381010 2.241869 -0.408998 10.049778 -1.548580 -1.778208 0.000000 0.000000 0.000000 2.386255 -11.768590 -0.785377 0.923342 3.903705 4.217971 -5.764540 0.955868 -0.850419 2.435761 -2.922294 0.714989 0.000000 0.000000 0.000000 -2.629381 1.087208 -1.287682 -26.900246 0.960213 -2.176000 -7.210166 0.180941 4.452103 0.000000 0.000000 0.000000 -4.999448 0.948931 -0.938709 5.649349 -0.422933 27.289787 2.700739 3.086500 2.653825 -49.653197 -16.658504 14.155930 -19.360065 -51.281600 12.309224 0.000000 0.000000 0.000000 -5.199218 0.670203 -0.448475 -0.651416 -7.494703 -23.833824 -2.195203 -2.918982 -1.630682 -75.382865 41.082567 28.110043 -29.390905 33.933565 2.283523 0.000000 0.000000 0.000000 
-23.710943 133.929550 34.565758 0.000000 0.000000 0.000000 3.099032 -14.077830 -0.537775 -28.536489 9.251387 8.385864 31.713685 15.399652 3.882780 37.810947 -2.122915 7.983999 7.656454 1.188806 -1.328658 0.000000 0.000000 0.000000 4.433693 -8.857094 -0.741610 -13.414382 -7.538353 -6.528034 21.226404 -12.688941 0.197645 50.483472 2.192073 0.278692 10.231702 -0.087077 -0.824423 0.000000 0.000000 0.000000 0.951937 -10.620360 -0.957463 0.908246 3.845177 4.142901 -6.222654 0.826830 -0.415315 1.803558 -2.533453 0.403068 0.000000 0.000000 0.000000 -3.817309 1.021982 -0.754397 -25.728805 0.887448 -3.332582 -6.572769 -0.939981 4.357392 0.000000 0.000000 0.000000 -5.638078 0.834532 -0.499615 5.627696 1.943151 30.364545 1.884171 1.462689 2.985407 -48.997434 -16.925998 9.477915 -21.186287 -47.606757 10.567894 0.000000 0.000000 0.000000 -6.307119 0.654666 0.071302 0.868690 -4.864128 -25.564795 -2.002663 -2.570337 -0.926374 -73.469756 40.717189 25.611782 -28.035722 28.531302 3.667378 0.000000 0.000000 0.000000 
-24.075766 132.159973 36.356224 0.000000 0.000000 0.000000 2.437785 -13.111383 -0.831968 -28.307763 8.739692 8.102049 32.329307 16.291354 3.992996 38.400280 -1.360782 9.622808 9.071059 1.273426 -2.165111 0.000000 0.000000 0.000000 3.784744 -7.042526 -0.776916 -12.072578 -6.221530 -5.252168 20.490296 -13.036564 -0.152360 50.797486 0.300324 0.117973 10.613875 0.656798 0.584743 0.000000 0.000000 0.000000 0.067690 -9.857766 -0.821016 0.525055 3.693961 3.984460 -6.773630 0.720315 -0.110390 1.232928 -1.993275 0.005615 0.000000 0.000000 0.000000 -4.993978 0.941587 -0.377601 -24.189134 0.724235 -4.407631 -5.403489 -1.647973 4.164250 0.000000 0.000000 0.000000 -6.290065 0.800913 -0.258234 5.411053 4.032442 33.177313 1.573661 0.202318 2.792844 -50.471557 -19.778981 5.498363 -24.200103 -41.750488 8.010740 0.000000 0.000000 0.000000 -7.273783 0.694977 0.440076 1.991242 -2.823737 -28.774412 -1.763793 -1.701947 0.183761 -74.159038 38.962438 24.452231 -26.686625 24.455566 4.108521 0.000000 0.000000 0.000000 
